<svg id="icons" enable-background="new 0 0 64 64" height="512" viewBox="0 0 64 64" width="512" xmlns="http://www.w3.org/2000/svg">
<g>
    <style type="text/css">
		.st1{fill:#ffffff;}
	</style>
    <g>
        <path class="st1" d="m63 33.463h-7.577c2.922-3.279 4.576-7.513 4.576-11.961 0-9.925-8.075-18-18-18-3.581 0-7.022 1.053-9.999 3.053-2.977-2-6.418-3.053-9.999-3.053-9.925 0-18 8.075-18 18 0 4.471 1.668 8.719 4.614 12.004h-7.615c-.553 0-1 .447-1 1s.447 1 1 1h9.047l-.05 23.99v.001.001c0 .079.027.148.045.223.013.055.012.114.033.165.04.096.104.176.17.253.017.021.025.047.044.065.062.062.14.102.215.146.036.021.064.053.103.069.066.027.142.03.214.044.06.011.113.035.175.035h.002 7.998.004.002c5.511-.004 9.993-4.488 9.993-10v-6.991c0-.002.001-.003.001-.005 0-1.663 1.353-3.016 3.016-3.016 1.662 0 3.015 1.353 3.015 3.016 0 .002.001.003.001.005v6.991c0 .002.001.004.001.007.004 5.494 4.463 9.964 9.952 9.991.004 0 .008.002.012.002.003 0 .005-.002.007-.002.01 0 .02.002.029.002h7.998.002c.062 0 .114-.024.172-.035.073-.014.15-.016.217-.044.035-.016.062-.045.095-.063.078-.045.159-.088.223-.151.018-.018.025-.043.041-.062.067-.078.132-.16.173-.257.019-.044.017-.097.029-.144.021-.08.049-.157.049-.244v-.001-.001l-.05-24.033h9.022c.553 0 1-.447 1-1s-.447-1-1-1zm-40.999-27.961c3.394 0 6.647 1.065 9.409 3.081.352.256.828.256 1.18 0 2.762-2.016 6.016-3.081 9.409-3.081 8.822 0 16 7.178 16 16 0 4.701-2.058 9.147-5.646 12.199-.011.009-.015.022-.024.031-.053.049-.09.107-.131.166-.034.05-.074.094-.099.146-.006.013-.015.021-.021.033-.063.132-.104.274-.104.43l.05 23.99h-6.032v-1.999h3.01c.266 0 .52-.105.707-.293s.293-.442.293-.707l-.011-29.995c0-4.414-3.592-8.006-8.006-8.006-.068 0-.129.025-.193.039h-19.793c-4.393 0-7.966 3.573-7.967 7.966l-.033 29.995c0 .266.104.52.293.708.188.188.441.293.707.293h3.001v1.999h-6.001l.05-23.99v-.001-.001c0-.015-.008-.026-.008-.041-.003-.071-.024-.138-.042-.207-.013-.046-.011-.097-.028-.14-.005-.012-.016-.021-.021-.031-.024-.053-.063-.097-.098-.146-.019-.026-.033-.056-.055-.08-.016-.019-.023-.044-.041-.062-.011-.011-.026-.016-.038-.026-.01-.01-.015-.023-.025-.032-3.617-3.053-5.692-7.514-5.692-12.239 0-8.821 7.178-15.999 16-15.999zm19.009 38c0-4.963-4.036-9-8.998-9-4.963 0-9 4.037-9 9v6.914c-.002.028-.017.053-.017.082 0 1.857-1.277 3.408-2.995 3.856v-20.85c0-2.757 2.243-5 5-5 .006 0 .011-.003.017-.003 1.094.009 1.983.9 1.983 1.997 0 .553.447 1 1 1s1-.447 1-1c0-1.199-.542-2.264-1.381-2.998.839-.733 1.381-1.798 1.381-2.997 0-.553-.447-1-1-1s-1 .447-1 1c0 1.1-.894 1.995-1.993 1.997-.002 0-.003 0-.005 0-.012 0-.021.006-.031.007-3.846.015-6.971 3.148-6.971 6.998v20.994h-2l.032-28.994s0 0 0-.001c0-3.29 2.677-5.967 5.967-5.967h19.986c.055 0 .103-.022.155-.031 3.239.083 5.851 2.738 5.851 5.998l.011 28.995h-2.01v-20.994c0-3.85-3.125-6.982-6.971-6.998-.011-.001-.02-.007-.031-.007-.002 0-.003 0-.005 0-1.1-.002-1.993-.897-1.993-1.997 0-.553-.447-1-1-1s-1 .447-1 1c0 1.199.542 2.264 1.381 2.997-.839.734-1.381 1.799-1.381 2.998 0 .553.447 1 1 1s1-.447 1-1c0-1.097.889-1.988 1.983-1.996.006 0 .011.003.017.003 2.757 0 5 2.243 5 5v20.84c-1.702-.46-2.964-2.001-2.964-3.847 0-.032-.016-.061-.019-.092v-6.904zm-3.982 6.996c0-.002-.001-.003-.001-.005v-6.989c0-.003-.002-.005-.002-.008-.003-2.763-2.251-5.01-5.014-5.01-2.764 0-5.012 2.247-5.015 5.01 0 .003-.002.005-.002.008v6.994c0 4.07-3.058 7.433-6.995 7.93v-2.021c2.795-.475 4.937-2.884 4.989-5.799.005-.038.022-.071.022-.11v-6.996c0-3.859 3.141-7 7-7 3.858 0 6.998 3.141 6.998 7v6.996c0 .044.02.081.024.123.06 2.899 2.182 5.295 4.958 5.781v2.021c-3.92-.511-6.962-3.865-6.962-7.925z"/>
    </g>
</g>
</svg>