<svg id="icons" enable-background="new 0 0 64 64" height="512" viewBox="0 0 64 64" width="512" xmlns="http://www.w3.org/2000/svg">
<g>
    <style type="text/css">
		.st1{fill:#ffffff;}
	</style>
    <g>
        <path class="st1" d="m60 16.496h-56c-2.206 0-4 1.794-4 4v13.004c0 1.858 1.279 3.411 3 3.858v9.146c0 .553.447 1 1 1h56c.553 0 1-.447 1-1v-9.146c1.721-.447 3-2 3-3.858v-13.004c0-2.206-1.794-4-4-4zm-1 29.008h-12v-5h2v2c0 .553.447 1 1 1h6c.553 0 1-.447 1-1v-6c0-.553-.447-1-1-1h-6c-.553 0-1 .447-1 1v2h-2v-2c0-3.309 2.691-6 6-6s6 2.691 6 6zm-32-7c-.553 0-1 .447-1 1s.447 1 1 1v1h-4v-1c.553 0 1-.447 1-1s-.447-1-1-1v-1h4zm-5 5h6c.553 0 1-.447 1-1v-2h2v5h-12v-5h2v2c0 .553.447 1 1 1zm11-3h2v2c0 .553.447 1 1 1h6c.553 0 1-.447 1-1v-2h2v5h-12zm4-2v-1h4v1c-.553 0-1 .447-1 1s.447 1 1 1v1h-4v-1c.553 0 1-.447 1-1s-.447-1-1-1zm14 0v-1h4v4h-4v-1c.553 0 1-.447 1-1s-.447-1-1-1zm-6 0h-2v-2c0-.553-.447-1-1-1h-6c-.553 0-1 .447-1 1v2h-2v-2c0-3.309 2.691-6 6-6s6 2.691 6 6zm-14 0h-2v-2c0-.553-.447-1-1-1h-6c-.553 0-1 .447-1 1v2h-2v-2c0-3.309 2.691-6 6-6s6 2.691 6 6zm-14 0h-2v-2c0-.553-.447-1-1-1h-6c-.553 0-1 .447-1 1v6c0 .553.447 1 1 1h6c.553 0 1-.447 1-1v-2h2v5h-12v-9c0-3.309 2.691-6 6-6s6 2.691 6 6zm-4 0c-.553 0-1 .447-1 1s.447 1 1 1v1h-4v-4h4zm49-5.004c0 .779-.452 1.448-1.104 1.778-.594-3.83-3.903-6.774-7.896-6.774-3.01 0-5.635 1.673-7 4.136-1.365-2.463-3.99-4.136-7-4.136s-5.635 1.673-7 4.136c-1.365-2.463-3.99-4.136-7-4.136s-5.635 1.673-7 4.136c-1.365-2.463-3.99-4.136-7-4.136-3.993 0-7.303 2.944-7.896 6.774-.652-.33-1.104-.999-1.104-1.778v-13.004c0-1.103.897-2 2-2h56c1.103 0 2 .897 2 2z"/>
    </g>
</g>    
</svg>