<svg id="icons" enable-background="new 0 0 64 64" height="512" viewBox="0 0 64 64" width="512" xmlns="http://www.w3.org/2000/svg"><path d="m12.002 29.203v5.798.002c.003 1.652 1.347 2.996 3 2.996h11.998v1h-1.001c-1.654 0-3 1.346-3 3s1.346 3 3 3h1.001v1h-1.001c-1.654 0-3 1.346-3 3s1.346 3 3 3h1.001v1.001h-1.001c-1.654 0-3 1.346-3 3s1.346 3 3 3h1.524l3.695 4.624c.19.237.478.376.782.376s.592-.139.781-.376l3.696-4.624h1.524c1.654 0 3-1.346 3-3s-1.346-3-3-3h-1.001v-1.001h1.001c1.654 0 3-1.346 3-3s-1.346-3-3-3h-1.001v-1h1.001c1.654 0 3-1.346 3-3s-1.346-3-3-3h-1.001v-1h11.998c1.653 0 2.997-1.344 3-2.996 0-.001 0-.001 0-.002v-5.798c3.812-3.149 6.002-7.741 6.002-12.703 0-9.098-7.402-16.5-16.5-16.5-3.435 0-6.703 1.043-9.5 3.025-2.797-1.982-6.065-3.025-9.5-3.025-9.098 0-16.5 7.402-16.5 16.5 0 4.962 2.191 9.554 6.002 12.703zm19.998 32.195-1.917-2.398h3.834zm6.001-4.398h-12.002c-.552 0-1-.448-1-1s.448-1 1-1h12.002c.552 0 1 .448 1 1s-.448 1-1 1zm-3.001-4h-6v-1.001h6zm3.001-3.001h-12.002c-.552 0-1-.448-1-1s.448-1 1-1h1.996c.002 0 .003.001.005.001s.003-.001.005-.001h7.99c.002 0 .003.001.005.001s.003-.001.005-.001h1.996c.552 0 1 .448 1 1s-.448 1-1 1zm-3.001-4h-6v-1h6zm3.001-3h-12.002c-.552 0-1-.448-1-1s.448-1 1-1h1.996c.002 0 .003.001.005.001s.003-.001.005-.001h7.99c.002 0 .003.001.005.001s.003-.001.005-.001h1.996c.552 0 1 .448 1 1s-.448 1-1 1zm-3.001-4h-6v-1h6zm-12.5-36.999c3.24 0 6.313 1.058 8.886 3.06.361.281.867.281 1.229 0 2.573-2.002 5.645-3.06 8.885-3.06 7.995 0 14.5 6.505 14.5 14.5 0 4.512-2.047 8.689-5.615 11.46-.017.013-.024.033-.04.047-.053.046-.093.1-.135.155-.037.05-.075.097-.103.152-.026.055-.039.112-.057.172-.019.068-.037.134-.041.204-.001.021-.012.039-.012.06v6.249c0 .552-.448 1-1 1h-33.995c-.552 0-1-.448-1-1v-6.249c0-.022-.012-.041-.013-.063-.004-.066-.021-.128-.039-.193-.017-.063-.031-.125-.06-.183-.025-.052-.063-.096-.097-.143-.044-.06-.086-.116-.142-.165-.016-.013-.022-.032-.038-.044-3.567-2.77-5.613-6.947-5.613-11.459 0-7.995 6.505-14.5 14.5-14.5z"/><path d="m41.5 7c5.238 0 9.5 4.262 9.5 9.5 0 .552.447 1 1 1s1-.448 1-1c0-6.341-5.159-11.5-11.5-11.5-.553 0-1 .448-1 1s.447 1 1 1z"/></svg>