<svg id="icons" enable-background="new 0 0 64 64" height="512" viewBox="0 0 64 64" width="512" xmlns="http://www.w3.org/2000/svg">
<g>
    <style type="text/css">
		.st1{fill:#ffffff;}
	</style>
    <g>
        <path class="st1" d="m62.28 56.174-3.628 3.629-.339-1.702c-.006-.03-.026-.054-.034-.083-.02-.065-.046-.126-.079-.188-.032-.06-.066-.114-.109-.165-.021-.024-.028-.054-.051-.076l-2.93-2.93c.909-1.542.717-3.561-.607-4.884-.032-.031-.073-.045-.107-.071l-17.138-17.139 3-3c.003-.003.006-.003.009-.006 1.315-1.314 1.508-3.318.606-4.851l9.226-9.226c1.396 1.089 3.102 1.686 4.9 1.686 2.138 0 4.146-.832 5.657-2.344 3.119-3.118 3.119-8.193 0-11.313-1.511-1.511-3.52-2.343-5.657-2.343s-4.146.832-5.656 2.343c-2.879 2.88-3.094 7.423-.658 10.558l-9.226 9.226c-1.533-.901-3.535-.709-4.851.606-.003.003-.003.006-.006.009l-3 3-15.032-15.032c-.003-.003-.003-.006-.006-.009-1.313-1.314-3.317-1.508-4.85-.607l-2.22-2.219.707-.708c.756-.755 1.173-1.76 1.173-2.828 0-1.067-.417-2.072-1.173-2.828-1.562-1.562-4.098-1.56-5.657 0l-4.238 4.239c-.391.391-.391 1.023 0 1.414.195.195.451.293.707.293s.511-.098.707-.293l4.239-4.239c.778-.778 2.049-.78 2.829 0 .378.379.587.881.587 1.414 0 .534-.209 1.036-.587 1.414l-1.414 1.415c-.195.195-.293.451-.293.707s.098.512.293.707l2.928 2.927c-.901 1.533-.71 3.536.604 4.851.003.003.006.003.009.006l4.94 4.94c.001.001.001.002.002.003s.002.001.003.002l2.116 2.116c.001.001.001.002.002.003s.002.001.003.002l7.966 7.966-22.342 22.341c-.003.003-.004.007-.007.01s-.007.004-.01.007c-.78.779-.78 2.049 0 2.828l2.828 2.828c.39.39.902.585 1.414.585s1.024-.195 1.414-.585c.004-.004.005-.009.009-.013.002-.002.005-.003.007-.005l22.341-22.342 12.311 12.311c.001.001.001.002.002.003s.002.001.003.002l4.823 4.823c.026.034.039.076.071.107.76.76 1.77 1.178 2.845 1.178h.001c.731 0 1.426-.208 2.039-.571l2.716 2.716.646 3.238c.007.034.026.062.037.095.016.051.033.099.058.147.035.071.078.133.127.192.021.024.029.055.052.077.012.012.027.016.039.026.065.06.14.104.218.145.032.017.061.04.094.053.112.043.231.069.355.069h.001.001c.063 0 .13-.006.194-.02.03-.006.054-.026.083-.035.065-.019.125-.045.186-.077.062-.032.116-.067.168-.111.023-.02.053-.027.075-.05l4.949-4.951c.391-.391.391-1.023 0-1.414s-1.024-.39-1.415.001zm-13.416-3.519-.707-.707 2.827-2.827.707.707zm-2.829-2.829 2.828-2.827.707.708-2.827 2.827zm-2.121-2.121 2.827-2.827.708.707-2.828 2.827zm6.843-42.779c1.133-1.133 2.64-1.757 4.242-1.757 1.604 0 3.11.624 4.243 1.757 2.339 2.34 2.339 6.146 0 8.485-1.134 1.134-2.64 1.758-4.243 1.758s-3.108-.624-4.242-1.758c-2.339-2.339-2.339-6.145 0-8.485zm-11.904 20.389c.778.778.779 2.044.005 2.824-.002.002-.004.002-.006.004l-7.935 7.935c-.008.008-.019.01-.026.018s-.01.019-.018.026l-23.026 23.026c-.004.004-.005.009-.009.013-.002.002-.005.003-.007.005l-2.828-2.828c.003-.003.004-.007.007-.01s.007-.004.01-.007l27.275-27.275c.006-.005.013-.007.018-.012s.007-.013.012-.018l3.7-3.7c.002-.002.002-.004.004-.006.781-.773 2.044-.772 2.824.005zm-20.874-3.546 2.827-2.827.708.708-2.827 2.827zm-2.122-2.122 2.827-2.827.707.707-2.827 2.827zm-2.121-2.121 2.827-2.827.707.707-2.827 2.827zm1.41-4.247c.002.002.002.004.004.006l-2.827 2.827c-.002-.002-.004-.002-.006-.004-.774-.78-.772-2.046.006-2.825.777-.777 2.042-.778 2.823-.004zm4.955 10.612 2.827-2.827 7.261 7.261-2.827 2.827zm15.743 10.088 9.483 9.484-2.827 2.828-9.484-9.484zm15.812 20.666c-.512 0-.99-.193-1.364-.537-.008-.01-.012-.021-.021-.031l2.841-2.841c.01.009.021.012.03.021.729.793.715 2.027-.054 2.796-.382.381-.89.592-1.432.592z"/>
        <path class="st1" d="m55 14.168c1.336 0 2.591-.52 3.535-1.464.943-.943 1.463-2.199 1.463-3.535s-.52-2.592-1.463-3.535c-.944-.945-2.199-1.464-3.535-1.464-1.337 0-2.592.52-3.536 1.464-.944.943-1.464 2.199-1.464 3.535s.52 2.592 1.464 3.535c.944.944 2.199 1.464 3.536 1.464zm-2.122-7.12c.566-.567 1.32-.878 2.122-.878.801 0 1.555.312 2.121.878.565.566.877 1.319.877 2.121s-.312 1.555-.877 2.121c-1.133 1.134-3.111 1.132-4.243 0-.566-.566-.878-1.319-.878-2.121s.312-1.555.878-2.121z"/>
    </g>
</g>
</svg>