<svg id="icons" enable-background="new 0 0 64 64" height="512" viewBox="0 0 64 64" width="512" xmlns="http://www.w3.org/2000/svg">
<g>
    <style type="text/css">
		.st1{fill:#ffffff;}
	</style>
    <g>
        <path class="st1" d="m3 61.998h32c1.654 0 3-1.346 3-3v-53.996c0-1.654-1.346-3-3-3h-32c-1.654 0-3 1.346-3 3v53.996c0 1.654 1.346 3 3 3zm-1-56.996c0-.552.448-1 1-1h32c.552 0 1 .448 1 1v53.996c0 .552-.448 1-1 1h-32c-.552 0-1-.448-1-1z"/>
        <path class="st1" d="m56.012 56.999h3c.553 0 1-.447 1-1v-9.275c1.858-1.302 3-3.438 3-5.728 0-3.859-3.141-7-7-7-1.437 0-2.829.443-4 1.263-1.171-.819-2.563-1.263-4-1.263-3.859 0-7 3.141-7 7 0 2.287 1.141 4.423 2.998 5.726v9.277c0 .553.447 1 1 1h3c1.647 0 2.987-1.335 2.998-2.98 0-.007.004-.013.004-.02v-2c0-.552.448-1 1-1s1 .448 1 1v2c0 1.654 1.345 3 3 3zm-4-8c-1.654 0-3 1.346-3 3v1.99c0 .004-.002.007-.002.01 0 .552-.448 1-1 1h-2v-8.808c0-.042-.019-.078-.024-.119-.008-.07-.018-.137-.04-.203-.021-.062-.051-.114-.083-.169-.031-.056-.063-.107-.105-.156-.046-.054-.099-.096-.155-.138-.033-.024-.055-.059-.091-.08-1.541-.893-2.499-2.552-2.499-4.33 0-2.757 2.243-5 5-5 1.228 0 2.411.455 3.332 1.281.381.342.955.342 1.336 0 .921-.826 2.104-1.281 3.332-1.281 2.757 0 5 2.243 5 5 0 1.779-.958 3.439-2.501 4.332-.032.019-.052.05-.081.071-.062.046-.119.092-.169.149-.039.046-.067.094-.098.145-.034.059-.065.114-.087.18-.022.064-.031.129-.04.196-.005.042-.024.079-.024.122v8.808h-2c-.552 0-1-.448-1-1v-2c-.001-1.654-1.347-3-3.001-3z"/>
        <path class="st1" d="m60.508 11.536c-.005-.005-.011-.006-.015-.01-2.174-2.179-5.179-3.531-8.493-3.531-6.617 0-12 5.383-12 12 0 3.261 1.311 6.218 3.429 8.382.032.048.053.102.095.144.048.048.107.071.161.107 2.159 2.08 5.088 3.367 8.315 3.367 6.617 0 12-5.383 12-12 0-3.286-1.329-6.266-3.477-8.435-.006-.007-.008-.017-.015-.024zm-8.508-1.541c2.41 0 4.623.857 6.352 2.282l-14.068 14.07c-1.427-1.729-2.284-3.942-2.284-6.352 0-5.514 4.486-10 10-10zm0 20c-2.385 0-4.575-.842-6.296-2.241l14.055-14.055c1.399 1.721 2.241 3.911 2.241 6.296 0 5.514-4.486 10-10 10z"/>
        <path class="st1" d="m56.546 23.746c-.274-.479-.887-.645-1.365-.367l-.188.108c-.149-.109-.307-.207-.479-.282v-.21c0-.553-.447-1-1-1s-1 .447-1 1v.21c-.171.075-.329.172-.478.282l-.187-.108c-.478-.277-1.09-.113-1.366.366-.276.478-.112 1.09.366 1.366l.191.11c-.01.091-.027.179-.027.271 0 .094.018.184.027.274l-.191.111c-.479.276-.643.889-.366 1.366.186.321.521.5.867.5.17 0 .342-.043.499-.134l.189-.109c.147.108.305.205.475.279v.212c0 .553.447 1 1 1s1-.447 1-1v-.212c.17-.074.327-.171.475-.279l.189.109c.157.091.329.134.499.134.346 0 .682-.179.867-.5.276-.478.112-1.09-.366-1.366l-.191-.111c.01-.091.027-.181.027-.274s-.018-.181-.027-.271l.192-.111c.479-.274.644-.886.368-1.364zm-3.532 1.747c0-.273.222-.496.495-.499.002 0 .003.001.005.001s.003-.001.005-.001c.273.003.495.226.495.499 0 .275-.225.5-.5.5s-.5-.224-.5-.5z"/>
        <path class="st1" d="m59.858 16.455c-.295-.462-.907-.597-1.369-.306-.466.29-.607.905-.321 1.374.025.042.624 1.044.027 1.899-1.091 1.564-.527 3.319-.022 4.11.189.298.51.459.838.459.182 0 .366-.05.532-.153.465-.291.606-.906.32-1.374-.025-.042-.624-1.042-.027-1.897 1.091-1.563.527-3.32.022-4.112z"/>
        <path class="st1" d="m44.65 21.358c.256 0 .512-.098.707-.293l1.544-1.544c.407.192.844.301 1.285.301.769 0 1.537-.293 2.122-.878l2.828-2.83c1.17-1.17 1.17-3.072 0-4.242s-3.072-1.17-4.242 0l-2.828 2.83c-.92.92-1.105 2.29-.578 3.404l-1.545 1.545c-.391.391-.391 1.023 0 1.414.196.196.452.293.707.293zm7.073-8.072c.39.39.39 1.024 0 1.414l-2.828 2.83c-.391.392-1.026.39-1.415.001-.39-.391-.389-1.025.001-1.415l2.828-2.83c.39-.39 1.023-.39 1.414 0z"/>
        <path class="st1" d="m8 16h6.002c2.206 0 4-1.794 4-4s-1.794-4-4-4h-6.002c-2.206 0-4 1.794-4 4s1.794 4 4 4zm8.002-4c0 1.103-.897 2-2 2h-2.002v-4h2.002c1.102 0 2 .897 2 2zm-8.002-2h2v4h-2c-1.103 0-2-.897-2-2s.897-2 2-2z"/>
        <path class="st1" d="m24 16h6c2.206 0 4-1.794 4-4s-1.794-4-4-4h-6c-2.206 0-4 1.794-4 4s1.794 4 4 4zm8-4c0 1.103-.897 2-2 2h-2v-4h2c1.103 0 2 .897 2 2zm-8-2h2v4h-2c-1.103 0-2-.897-2-2s.897-2 2-2z"/>
        <path class="st1" d="m8 26h6.002c2.206 0 4-1.794 4-4s-1.794-4-4-4h-6.002c-2.206 0-4 1.794-4 4s1.794 4 4 4zm8.002-4c0 1.103-.897 2-2 2h-2.002v-4h2.002c1.102 0 2 .897 2 2zm-8.002-2h2v4h-2c-1.103 0-2-.897-2-2s.897-2 2-2z"/>
        <path class="st1" d="m24 26h6c2.206 0 4-1.794 4-4s-1.794-4-4-4h-6c-2.206 0-4 1.794-4 4s1.794 4 4 4zm8-4c0 1.103-.897 2-2 2h-2v-4h2c1.103 0 2 .897 2 2zm-8-2h2v4h-2c-1.103 0-2-.897-2-2s.897-2 2-2z"/>
        <path class="st1" d="m8 36h6.002c2.206 0 4-1.794 4-4s-1.794-4-4-4h-6.002c-2.206 0-4 1.794-4 4s1.794 4 4 4zm8.002-4c0 1.103-.897 2-2 2h-2.002v-4h2.002c1.102 0 2 .897 2 2zm-8.002-2h2v4h-2c-1.103 0-2-.897-2-2s.897-2 2-2z"/>
        <path class="st1" d="m24 36h6c2.206 0 4-1.794 4-4s-1.794-4-4-4h-6c-2.206 0-4 1.794-4 4s1.794 4 4 4zm8-4c0 1.103-.897 2-2 2h-2v-4h2c1.103 0 2 .897 2 2zm-8-2h2v4h-2c-1.103 0-2-.897-2-2s.897-2 2-2z"/>
        <path class="st1" d="m8 46h6.002c2.206 0 4-1.794 4-4s-1.794-4-4-4h-6.002c-2.206 0-4 1.794-4 4s1.794 4 4 4zm8.002-4c0 1.103-.897 2-2 2h-2.002v-4h2.002c1.102 0 2 .897 2 2zm-8.002-2h2v4h-2c-1.103 0-2-.897-2-2s.897-2 2-2z"/>
        <path class="st1" d="m24 46h6c2.206 0 4-1.794 4-4s-1.794-4-4-4h-6c-2.206 0-4 1.794-4 4s1.794 4 4 4zm8-4c0 1.103-.897 2-2 2h-2v-4h2c1.103 0 2 .897 2 2zm-8-2h2v4h-2c-1.103 0-2-.897-2-2s.897-2 2-2z"/>
        <path class="st1" d="m8 56h6.002c2.206 0 4-1.794 4-4s-1.794-4-4-4h-6.002c-2.206 0-4 1.794-4 4s1.794 4 4 4zm8.002-4c0 1.103-.897 2-2 2h-2.002v-4h2.002c1.102 0 2 .897 2 2zm-8.002-2h2v4h-2c-1.103 0-2-.897-2-2s.897-2 2-2z"/>
        <path class="st1" d="m24 56h6c2.206 0 4-1.794 4-4s-1.794-4-4-4h-6c-2.206 0-4 1.794-4 4s1.794 4 4 4zm8-4c0 1.103-.897 2-2 2h-2v-4h2c1.103 0 2 .897 2 2zm-8-2h2v4h-2c-1.103 0-2-.897-2-2s.897-2 2-2z"/>
    </g>
</g>
</svg>